<svg xmlns="http://www.w3.org/2000/svg" viewBox="0 0 600 125">
    <g id="Sam_Rapaport_Signature" data-name="Sam Rapaport Signature">
        <path d="M124.57,3.26a22.23,22.23,0,0,1,3.65-3,2.94,2.94,0,0,1,2.24,0c1.44.54,3.23,1.09,3.34,2.88a44.91,44.91,0,0,1-.41,6.32c0,.43-.19.86-.19,1.29a43.49,43.49,0,0,1-.65,8.89,2.25,2.25,0,0,0,1.72,2.84c2.63.8,2.57,1.11,1.79,3.65-.65,2.11-1.72,4-2.46,6-.81,2.18-.56,4.78-.6,7.2,0,1.18.43,2.36.51,3.55.18,2.36.24,4.72.37,7.08.08,1.3,1.05,1.94,2.4,1.23,3.12-1.63,6.62-2,9.86-3.24.2-.08.36-.28.56-.31,3.66-.66,3.85-.73,3.69-4.41a7.61,7.61,0,0,1,3.41-7,3.74,3.74,0,0,1,1.65-.29c.4,0,.87.13,1.19,0,2.16-1,2.69.51,3.07,2a19.05,19.05,0,0,1,.81,8.21c-.43,2.56.2,5.29-.16,7.88-.5,3.64.9,6.9,1.49,10.32.1.55.65,1,1,1.54.34-.51.69-1,1-1.54,1.13-1.71,2.31-3.39,3.4-5.13,2-3.23,4-6.47,5.94-9.75a1.75,1.75,0,0,0-.19-1.69c-1-.77-.69-1.8-.91-2.75a63.52,63.52,0,0,0-2-7.08c-1.56-4.35-3.13-8.63-3.66-13.32a10.78,10.78,0,0,1,1-6,5.65,5.65,0,0,1,2.22-1.94c3.46-2.22,7.52-2.7,11.38-3.71a104.12,104.12,0,0,1,10.72-2.37,38.34,38.34,0,0,1,6.78-.06c2.82.07,5.65.22,8.47.34a56.78,56.78,0,0,1,18.66,2.84,39.83,39.83,0,0,1,9.11,4.56c1.47,1,2.33,3,3.34,4.56a17.41,17.41,0,0,1,3,9.07A9.49,9.49,0,0,1,238,39.19c-2,1.84-3.86,3.77-5.74,5.7a55.06,55.06,0,0,1-11.46,8.92,14.74,14.74,0,0,0-2.47,1.92c-.23.21-.14.76-.2,1.15.37,0,.79.13,1.08,0,4.64-2.26,9.25-4.58,13.89-6.84a8.66,8.66,0,0,1,2.29-.69c3.65-.59,7.26-4.62,7.43-8.29a4.41,4.41,0,0,1,.39-1.89q2.31-4,4.79-8a2.57,2.57,0,0,1,1.48-1.05,16.84,16.84,0,0,1,3.81-.35,4.75,4.75,0,0,1,2.61.7c1.27,1,2.52.39,3.74.26,2.23-.23,4.42-.76,6.65-1q6.5-.63,13-1a89.11,89.11,0,0,1,10.2-.3,112.7,112.7,0,0,1,12,1.37,23.28,23.28,0,0,1,4.62,1.72c1.14.44,2.29.85,3.41,1.34a5,5,0,0,1,3.28,3.74,2.46,2.46,0,0,0,.41.71c.2-.24.5-.44.59-.71,1.06-3.06,2.15-6.11,3.1-9.2.86-2.81,3.19-4.21,5.33-5.8.2-.15.82.37,1.27.41a15.61,15.61,0,0,0,3.27.14c2.11-.24,4.19-.91,6.3-1,9.26-.21,18.52-.42,27.78-.32a52.3,52.3,0,0,1,12.5,1.45c3.22.85,6.54,1,9.69,1.93,2.55.78,5.4,1.17,7.5,2.62a9.34,9.34,0,0,1,4.27,7.41c0,1.9.63,4-.67,5.71-.73,1-1.67,1.84-2.5,2.76a4.72,4.72,0,0,0-.43.72c.24.13.49.37.71.35a56,56,0,0,0,7.46-.77c1-.22,1.94-1.4,2.69-2.32,3.07-3.73,6.16-7.39,10.34-10a21.76,21.76,0,0,0,3.47-3.39c.27-.28.43-.74.75-.88,2.94-1.34,5.9-2.66,8.88-3.93a54.9,54.9,0,0,1,6.8-2.69,25.28,25.28,0,0,1,5.66-.55,18.61,18.61,0,0,1,4.29.17c4.41.86,10.61,3.29,11.63,9.22A2.35,2.35,0,0,0,455.76,30c3.52-.26,7-1,10.54-1.09,4.33-.17,4.81-4.09,6.88-6.46.73-.83,1.36-1.76,2.13-2.55,2-2.05,4-4.09,6.06-6,1.22-1.14,4.9-.87,6.05.3,0,0,.11.08.12.13.37,1.78,1.24,3.53.68,5.39-.5,1.67-1.23,3.27-1.75,4.94-.07.22.53.93.81.93,6.25-.18,12.5-.35,18.74-.68a82.34,82.34,0,0,0,11.45-1.08c4.06-.8,8.29.1,12.26-1.57a12.31,12.31,0,0,1,4.49-.4A75.09,75.09,0,0,0,547,20.49c2.45-.43,5-.46,7.46-.73,3.95-.43,7.9-.93,11.85-1.36,1.55-.17,3.12-.27,4.68-.35,2.94-.14,5.88-.24,8.82-.34,1.45-.05,1.79.67,2.1,2.08.61,2.82-1.55,4.39-2.34,6.54a2.07,2.07,0,0,0-.1,1.51c.6.9.08,1-.6,1.2-.05,0-.11,0-.17,0-4.5.23-9,.47-13.51.67a4.81,4.81,0,0,1-1.3-.34c.33-.22.67-.44,1-.68a3,3,0,0,0,.39-.41c-.11-.09-.24-.27-.34-.26-2.49.22-5,.47-7.46.71-.82,2-2.91,1.26-4.37,1.86-1,.42-2.31.6-3.12-1-.29-.59-1.75-.91-2.64-.84a30.5,30.5,0,0,0-5.6,1c-.66.18-2,.16-1.66,1.57,0,.13-.1.29-.16.43-.06-.15-.07-.37-.18-.44a6.06,6.06,0,0,0-5-.94,21,21,0,0,1-3.5.67c-1.65.11-3.24,0-4.8,1-.92.55-2.32.25-3.48.47-2,.39-4,1-6,1.33a26.84,26.84,0,0,1-3,0c-1,.06-2,.21-3,.33-2.62.34-5.23.74-7.85,1-1.21.13-2.46-.05-3.68,0-4.63.31-9.26.59-13.88,1-2.19.22-2.73,1.09-2.8,3.25,0,.47-.27.93-.32,1.41-.14,1.4-.26,2.8-.35,4.21-.13,2-.34,4-.33,6,0,2.83.3,5.67.29,8.51,0,1.39-.58,2.79-.59,4.19,0,2,.25,4,.41,6,0,.26.2.51.21.77.12,3.16.1,6.34.39,9.48.29,3.32.89,6.61,1.33,9.92.15,1,.25,2.08.35,3.12.24,2.6.37,5.21.72,7.79.3,2.19.87,4.35,1.25,6.53a71.26,71.26,0,0,1,1.39,9c.08,1.82-.17,3.51.71,5.3s-.53,3.12-2.46,3.13a24.84,24.84,0,0,0-2.59,0c-2.12.24-3.2-1.14-4.59-2.41-2.39-2.17-3.48-4.91-4.48-7.79-1.34-3.85-2.67-7.72-4.12-11.53a32.6,32.6,0,0,0-2-3.49,4,4,0,0,1,1.37-4.93c1.12-.62,2.64.12,3.77,1.82.48.72,1,1.45,1.48,2.14a2.26,2.26,0,0,0,.68.4,2.26,2.26,0,0,0,.2-.76c-.29-2.41-.61-4.82-.93-7.23,0,0-.08-.09-.09-.13-.35-3.13-.91-6.25-1-9.38-.15-5.81-.37-11.59-1.72-17.29a5.77,5.77,0,0,1,.38-2.9,10.12,10.12,0,0,0,.33-5.64,11.63,11.63,0,0,1,.28-3.63c.34-3.29.69-6.59,1-9.88,0-.23-.1-.54,0-.68.55-.67.51-1.3-.32-1.55-.23-.07-.71.66-1.08,1-.55.55-1.14,1.08-1.65,1.66-.78.88-1.49,1.83-2.28,2.7s-1.42,1.44-2.15,2.15-1.23,1.19-1.85,1.78c-1.06,1-2.1,2-3.18,3-1.53,1.4-3,2.81-4.63,4.14-.56.46-1.37.61-2,1a41.06,41.06,0,0,0-3.39,2.64c-1.52,1.33-2.83,3-4.51,4.05a126.9,126.9,0,0,1-12,7.16c-5.5,2.76-11.21,5.08-16.83,7.6-1.12.5-2.19,1.09-3.33,1.55a2.28,2.28,0,0,0-1.53,2.63c.37,5.14.64,10.3,1.07,15.44.18,2.16.69,4.3,1,6.45a5.35,5.35,0,0,1-.31,1.41c-.25,1.5-.47,3-.7,4.52a3.54,3.54,0,0,1-3.54,2.58,11.05,11.05,0,0,1-6.26-2.77,5.79,5.79,0,0,1-1.77-2.15c-1.29-4.29-2.39-8.64-3.62-12.95-.29-1-.84-2-2.21-1.71-.45.1-1.19.6-1.15.81.57,3.56-2.38,4.52-4.46,6.09a50.32,50.32,0,0,1-6,4.21,34.19,34.19,0,0,1-5.57,1.92l-3.2,1c-3.37,1.13-6.74.38-10.11,0a5,5,0,0,1-1.48-.57c-1.35-.66-2-.22-2,1.33.05,1.24.62,2.62.23,3.67a7.74,7.74,0,0,1-2.72,3.92c-2.34,1.4-5.43.11-6.86-2.31a1.34,1.34,0,0,0-.81-.5c-2.91-.6-3.2-1.75-4-4.58a9.23,9.23,0,0,0-.79-1.57c-.42.35-.87.68-1.26,1.06-1.16,1.16-2.21,2.46-3.47,3.5a5,5,0,0,1-6.21-.3c-2.68-2.19-5.42-4.32-8.22-6.36A6.61,6.61,0,0,1,326,98.69a2.55,2.55,0,0,1,3.86-1.7c3.05,1.51,6.14,2.92,9.21,4.4,1,.47,1.69.22,1.86-.8.29-1.71.4-3.44.59-5.16a19.67,19.67,0,0,0,.3-3,13.9,13.9,0,0,0-.61-4c-.9-2.43-2.1-4.75-3.14-7.12-1.19-2.72-2.27-5.49-3.55-8.16a37.7,37.7,0,0,0-2.92-5c-1-1.46-2.4-.47-3.47-.13-4.09,1.33-8.18,2.71-12.16,4.35-3.08,1.27-6.45,2.51-8.43,5.27s-3.25,6-4.7,9c-1.2,2.53-2.23,5.15-3.31,7.74-.62,1.46-1.11,3-1.84,4.39a2.25,2.25,0,0,1-3.19,1.1c-.93-.38-2-.49-2.95-.79a3.62,3.62,0,0,1-1.25-.71,16.72,16.72,0,0,1-1.32-1.34,13.84,13.84,0,0,0-.21,2.11c.19,3.23.69,6.47.58,9.68-.06,2,.49,4.37-1.32,5.93a12,12,0,0,1-4.11,2.48c-1.41.43-3.31.67-4.49,0-1.72-.9-3.08-2.58-4.44-4.07a22.55,22.55,0,0,1-2.43-3.45c-2.3-3.69-4.56-7.4-6.83-11.1-3.13-5.12-6.29-10.23-9.38-15.38-1.64-2.75-1.61-3-4.73-2.36-3.91.74-7.77,1.74-11.62,2.73-1.84.47-2.7,2.07-3.29,3.69-1.67,4.53-3.3,9.08-4.83,13.65-.92,2.73-1.66,5.51-2.42,8.28-.35,1.28-.63,2.53-2.16,2.9a.67.67,0,0,0-.39.29c-1.63,2.64-4.27,2.11-6.72,2.08-.36,0-1-.29-1-.57-.59-1.83-1.23-3.56-.28-5.6,1.63-3.5,2.74-7.24,4.45-10.7,1.12-2.27,2.4-4.41,2.68-7a4.45,4.45,0,0,0,0-.73c-.2.1-.5.16-.59.33a15.47,15.47,0,0,0-1.09,2.29c-.64,1.83-1.56,3.71-3.49,4-2.57.41-5.35.52-7.18-2.09a3.36,3.36,0,0,1-.26-3.29,27.14,27.14,0,0,1,.95-3.21,24,24,0,0,1,2.5-3.61c1.48-1.89,3.61-2.42,5.87-2.88a24.25,24.25,0,0,0,6.68-2.13c1.05-.56,1.55-2.28,2.13-3.55,1.22-2.65,2.47-5.29,3.43-8s1.65-5.74,2.46-8.61c.11-.41.25-.81.39-1.21s.37-.95.55-1.42a5.7,5.7,0,0,0-1.73.23c-1.89.86-3.64,2.09-5.59,2.71-4.45,1.43-8.16,4.19-12.24,6.26-3.56,1.8-7.13,3.57-10.71,5.34-1.31.64-1.86,2.47-1.29,4.53a11.36,11.36,0,0,1,.34,6,9,9,0,0,0,.33,3.6c.38,1.95.92,3.86,1.31,5.81a36.65,36.65,0,0,1,.67,4.53,4.25,4.25,0,0,1-.42,2.38,9.53,9.53,0,0,0-1,3.91c-.38,2.73-4,4.59-6.51,3.42a2,2,0,0,1-1-1c-.75-2.45-1.5-4.9-2.08-7.39-.67-2.9-1.12-5.84-1.76-8.74s-1.33-5.74-2.08-8.59a9.4,9.4,0,0,0-1-2.15c-.12-.21-.44-.31-.66-.45-.12.29-.39.61-.34.87.7,3.43,1.51,6.84,2.16,10.28.51,2.73.86,5.49,1.26,8.24.29,2,.42,3.93.86,5.84.58,2.5.19,3.78-2,5.2a14.1,14.1,0,0,1-1.65,1c-.66.33-1.65,1-2,.76a7.54,7.54,0,0,1-2.39-2.54c-1.76-3.26-1.66-7-2.46-10.5-.86-3.76-1.91-7.48-2.71-11.25-.51-2.4-.72-4.86-1.07-7.29-.1-.65-.29-1.28-.34-1.93-.25-3.41-.5-6.83-.69-10.25-.16-2.86-.21-5.72-.39-8.57,0-.35-.54-1-.8-.94a1.66,1.66,0,0,0-1.2.75c-1.7,3-3.23,6.13-5,9.09a78.19,78.19,0,0,1-7,10.62c-1.48,1.73-3.38,3.75-6.39,3.6A5.51,5.51,0,0,1,156,77c-1-1.65-2.3-3.29-2.16-5.47,0-.39-.5-.81-.77-1.22-.3.41-.8.79-.89,1.24a86,86,0,0,0-1.69,9.77,58.73,58.73,0,0,1-2.41,12.48,27.73,27.73,0,0,0-.42,4.31,66.39,66.39,0,0,1-1.06,6.61,5.15,5.15,0,0,1-5.4,3.7c-.17,0-.39.07-.51,0-1.65-1.14-3.76-2-4.82-3.54-1.17-1.73-1.48-4.08-2-6.2-.73-3.15-1.3-6.34-1.93-9.52a2.45,2.45,0,0,1-.15-.79c.37-3.93-1.36-7.45-2.15-11.15-.64-3-1.12-6-1.65-8.94-.17-1-.15-2-.37-3-.31-1.39-1.68-1.84-3.72-1.1-2.34.84-4.63,1.85-7,2.77L109.58,70c-.55.22-1.11.38-1.65.62a7.76,7.76,0,0,0-.94.59c.39.17.79.52,1.16.48a8.77,8.77,0,0,1,5,1.2c3.36,1.8,3.91,3.42,1.72,6.53-2.86,4.07-6.07,8-10.35,10.55-5.67,3.33-11.78,5.93-17.64,8.94-1.44.74-2.65,1.92-4,2.8-.52.34-1.49.77-1.76.55-1.52-1.23-2.9-.23-4.31.07-3.58.77-7.15,1.59-10.72,2.4-3.42.77-6.82,1.6-10.25,2.29a46.63,46.63,0,0,1-5.88.78c-2.88.2-5.77.37-8.65.33a7.07,7.07,0,0,1-6.16-2.94,2.3,2.3,0,0,1,.23-3.21c1.74-2,3.34-4.12,5.14-6.07a22.64,22.64,0,0,1,3.1-2.46c4.27-3.24,8.56-6.46,12.83-9.71,3.1-2.36,6.18-4.77,9.26-7.17.66-.5,1.29-1,1.94-1.54A19.27,19.27,0,0,0,65,74.44c-4.5-.27-9-.47-13.51-.7l-6.75-.35c-4.21-.22-8.43-.43-12.64-.69C29,72.51,26,72.27,22.89,72c-2.15-.19-4.39-1-6.42-.56-3.21.62-6-1.1-9.11-.86-2.57.19-4.16-1.84-5.5-3.61-2.73-3.59-2.41-5.42.68-9.3,2.72-3.42,6.27-5.79,9.94-8q4.68-2.79,9.56-5.21c4.43-2.18,8.94-4.19,14-4.46,2.1-.11,4.19-.7,6.27-.62,4.92.18,9.83.65,14.74,1,1.21.08,2.42,0,3.62,0,3.71,0,7.14,1.23,10.54,2.45a43,43,0,0,1,5.59,2.72,7.44,7.44,0,0,1,3.5,8.19A4.08,4.08,0,0,0,80.1,55c.15,2.89-2.83,4.5-4.83,4.65C71.12,60,70.05,58.5,68.56,55a5.77,5.77,0,0,0-4.35-3.62A78.7,78.7,0,0,0,53,49.06C44.4,48.3,35.8,47.14,27.46,51c-3.43,1.57-6.65,3.17-9.28,5.9-1.39,1.44-3.06,2.6-4.56,3.93A4.7,4.7,0,0,0,12.93,62a3.09,3.09,0,0,0,1,.41,62.24,62.24,0,0,1,15.39,2.38,39.31,39.31,0,0,0,6.08.74c4.12.46,8.23,1,12.36,1.35,1.33.13,2.68,0,4,0,4.91.21,9.81.62,14.72.62a44.35,44.35,0,0,1,9.27.68,4.57,4.57,0,0,0,2.76-.7C81.81,65.73,85,63.88,88.21,62c2-1.15,4-2.25,5.91-3.59A6.38,6.38,0,0,0,95.59,56c1.53-3.09,2.9-6.27,4.57-9.28s3.63-5.6,5.3-8.48c1.12-1.92,1.94-4,2.9-6,1.15-2.39,2.18-4.85,3.48-7.15,2-3.5,4.15-6.89,6.2-10.34.45-.77.66-1.69,1.12-2.45C120.54,10,122,7.85,123.4,5.61a16.59,16.59,0,0,0,1.17-2.35m71.2,58.79a4.77,4.77,0,0,0,1.94-4.55c-.16-2.36,0-4.73,0-7.1a18.12,18.12,0,0,1,0-1.95c.26-2.5-.56-5.05.9-7.54a3.77,3.77,0,0,1,3.89-2.22c1.73.16,3.25.68,3.17,2.92,0,.38.37.77.45,1.17a30.4,30.4,0,0,1,.83,5.14,45,45,0,0,1-.61,5.38,4.08,4.08,0,0,0,.27,1.19,7.63,7.63,0,0,0,1.14-.58c2.45-1.85,4.85-3.78,7.34-5.57,3.83-2.74,8.05-5,10.91-8.88,1.91-2.57,4.24-4.83,4.56-8.45.3-3.39-.37-5.24-3.64-6.44a5.68,5.68,0,0,1-1.1-.67c-2.2-1.44-4.76-2.27-6.8-4-.29-.23-.87-.08-1.31-.16-1.05-.21-2.1-.45-3.16-.68a11.53,11.53,0,0,0-3.16-.64c-2.85.2-5.68.7-8.53,1-3.23.3-6.49.35-9.71.74-3.4.42-6.78,1-10.14,1.71a63.81,63.81,0,0,0-6.52,1.72c-1.1.35-1.93,1.14-1.19,2.43,1.78,3.12,2.68,6.58,3.94,9.89A6,6,0,0,0,179.9,37a7.93,7.93,0,0,0,.86-1.33,29.54,29.54,0,0,1,1.5-4,5.57,5.57,0,0,1,2.35-2.13c.4-.19,1.27.62,1.94.93.39.17.91.13,1.22.38.6.48,1.36,1,1.57,1.67.54,1.69,1.19,3.27.86,5.27-.39,2.39.15,4.93.22,7.4.05,2.2-.08,4.4,0,6.59.14,2.83.33,5.67.73,8.47a4,4,0,0,0,1.5,2.7c.59.32,1.81-.52,3.09-.84M374.22,44c3.36-1.74,6.71-3.5,9.2-6.45.7-.82,1.61-1.63.72-2.95-.73-1.08-1.35-2.07-2.91-1.45A1.91,1.91,0,0,1,380.1,33a33.74,33.74,0,0,0-4.7-1.5,30.07,30.07,0,0,1-9.71-2.78,2.1,2.1,0,0,0-1,0c-1.46.1-2.93.3-4.39.32-3.58,0-7.16-.07-10.74,0-4.85.14-9.69.45-14.53.65-1.34.06-1.41.9-.94,1.7a65.85,65.85,0,0,1,5.35,13.08c.61,1.86,1.54,3.63,2,5.51.67,2.65,1.24,2.39,3.48,1.69,2.07-.65,4-1.63,6.08-2.36,2.51-.88,5.27-1.28,7.54-2.56,2.48-1.4,4.65-1.86,7.22-.58a3.2,3.2,0,0,0,2.19.23c2.07-.65,4.09-1.49,6.29-2.43m5.18,51.91c2.26-1.46,4.85-2.53,6.34-5A37.71,37.71,0,0,0,389,85.43c1.91-4.85,2.15-10,1.76-15.12a15,15,0,0,0-.62-3.86,40.71,40.71,0,0,0-2.54-5.64c-1.05-1.92-2.42-2.46-4.35-1-4,2.92-8,5.69-11.45,9.44a31.59,31.59,0,0,0-4.91,8,41.7,41.7,0,0,0-2,6.22,19.59,19.59,0,0,0,0,11.1,5.8,5.8,0,0,0,7.75,4c2.19-.8,4.38-1.61,6.75-2.58m-81-53.63a28.18,28.18,0,0,0,2.4-2.08c1.15-1.22.61-2.66-1.09-2.88-2.37-.31-4.74-.52-7.12-.7-1.22-.09-2.45,0-3.67,0-4.31,0-8.62,0-12.91.2a46,46,0,0,0-7.24,1.2,60.66,60.66,0,0,0-6.16,1.74,1.46,1.46,0,0,0-.71,1.22,11.29,11.29,0,0,0,.73,2.43c.88,2.44,1.72,4.9,2.69,7.3a9.78,9.78,0,0,0,1.9,3.29c.3.3,1.62-.39,2.48-.63.31-.09.62-.18.93-.25,3-.68,6-1.19,9-2.1a75.23,75.23,0,0,0,9.5-3.63c3.13-1.46,6.61-2.34,9.32-5.1M440.6,40.73l-10.21.7c-.21,0-.42.13-.63.14l-5.14.19c-.4,0-.8,0-1.2,0h-8.5a18.63,18.63,0,0,0-2.8,0c-.27,0-.5.73-.61,1.16,0,.09.58.42.92.49.8.16,1.63.21,2.43.37,2,.38,4.15,2.19,4.16,3.68a20.42,20.42,0,0,1-.43,5.13c-.94,3.62-2.37,7.12-2.3,11,0,1.05,0,1.88,1.57,1.59,1.23-.24,2.3-.24,2.28-1.93,0-.48.61-1,1.05-1.43q5.71-5.23,11.48-10.41c.29-.25.84-.18,1.21-.39a5.23,5.23,0,0,0,1.69-1.2c.61-.85.84-2,1.52-2.78,1.43-1.63,3.06-3.09,4.58-4.65a7.63,7.63,0,0,0,.8-1.18,16,16,0,0,0-1.87-.49M70.43,83.53c-2.44,1.87-5,3.66-7.31,5.61s-4.53,4-6.78,6c-1.05.94-2.11,1.85-3.13,2.81a.84.84,0,0,0-.19.79.91.91,0,0,0,.79.28c2.48-.51,5-1,7.43-1.6C66,96.33,70.76,95.24,75.48,94c2.62-.7,5.07-1.66,6.12-4.67a53,53,0,0,1,3.11-6.27c.2-.4.38-.81.56-1.22a5.35,5.35,0,0,0-2,.28,10.62,10.62,0,0,0-1.85,1.77c-.79.79-1.62,1.77-2.82.92s-3.07-1.89-3.57-3.23-.9-.86-1.45-.5c-1.05.7-2,1.52-3.19,2.46m200.69-18.9c.24.58.51,1.16.72,1.76a1.71,1.71,0,0,0,2.25,1.14c4.2-1.06,8.4-2.14,12.57-3.3,2.1-.58,4.12-1.43,6.22-2,2.29-.65,5.17.74,5.12,3.34,0,1-.33,2-.42,3a9,9,0,0,0,.12,1.63c.47-.14,1.16-.14,1.38-.46,1.2-1.71,2.34-3.48,3.41-5.28,1.63-2.75,3.19-5.54,4.78-8.32.22-.39.43-.8.64-1.19-.46-.14-1-.48-1.37-.38-2.74.69-5.47,1.47-8.2,2.22-1.91.52-3.8,1.15-5.74,1.5-3.23.57-6.52.83-9.75,1.43-3.59.67-7.14,1.59-10.71,2.37-1.39.31-1.7,1-1,2.59m85.86-1c0-2.1-.18-2.29-2.22-2.22a15.92,15.92,0,0,0-2.27.33c-2.1.34-4.21.63-6.29,1.07a1.51,1.51,0,0,0-.85,1.18,29.57,29.57,0,0,0,1.16,2.95c1.23,3.48,2.89,7,2.79,10.66-.12,4.35,1.82,7.94,3.23,11.76.1.27.6.42.94.53a1.11,1.11,0,0,0,.39-.68c-.16-4.59.53-9.11.94-13.67A49.37,49.37,0,0,1,357,63.6m-103.45-11c-.57,1-1.1,2-1.73,2.89a2.88,2.88,0,0,0,0,3.39c2,3.36,3.92,6.72,5.76,10.15.84,1.58,2.08,1.81,3.62,1.63,1.89-.23,2.43-1,1.82-2.78-.52-1.45-1-2.9-1.54-4.34-.79-2.14-1.6-4.26-2.41-6.39s-1.59-4.14-2.43-6.2c-.18-.44-.45-1-.82-1.15s-.86.36-1.15.7a7.27,7.27,0,0,0-1.12,2.1m-134-6a33.57,33.57,0,0,1-2.45,3.09c-1.75,1.76-3.74,3.28-5.37,5.13a35.37,35.37,0,0,0-3.42,5.09c-.23.37-.08,1-.1,1.47.42-.21.87-.39,1.28-.64a7.85,7.85,0,0,1,1.33-.94c1.65-.58,3.36-1,5-1.61,2.83-1,5.65-2.13,8.44-3.27.51-.21,1.28-.78,1.25-1.12a52.42,52.42,0,0,0-1.11-7.08c-.21-.83-1.32-2.11-1.88-2-1,.12-1.88,1.12-3,1.92M141.29,59c-.59.23-1.18.49-1.78.69-3.28,1.09-3.37,1.1-2.85,4.4.45,2.88,1.08,5.73,1.71,8.57.51,2.24,1.18,4.45,1.69,6.69.24,1,.19,2.09.4,3.11.08.36.57.64.88,1a3.86,3.86,0,0,0,.45-1c.26-2.14.4-4.29.72-6.42.76-5,1.6-9.88,2.39-14.82.13-.81.17-1.63.25-2.45l-3.05.17c-.15,0-.31.07-.81.11M454.4,45.89c.91-.69,1.9-1.3,2.74-2.08,1.3-1.19,2.5-2.5,3.74-3.76l.87-.93a4.26,4.26,0,0,0-1.36-.42c-2.14.06-4.26.28-6.4.29-1.38,0-1.93.9-2.51,1.85-.25.4-.33.9-.58,1.3-2.15,3.44-3.55,7.34-6.27,10.45-.29.34-.13,1.07-.17,1.61a4.56,4.56,0,0,0,1.42-.54c1.55-1.29,3.05-2.63,4.54-4,1.29-1.18,2.54-2.4,4-3.78m-350,34.38c.81-.69,1.65-1.35,2.39-2.1.11-.11-.19-.93-.35-1-2.31-.3-4.63-.55-7-.72-1.63-.11-2.49.82-2.86,2.35a8.52,8.52,0,0,1-.82,2.06c-1.14,2-2.37,3.94-3.49,6-.15.27.12.77.2,1.16a4.23,4.23,0,0,0,.95-.31c.7-.41,1.36-.87,2-1.32,2.92-2,5.82-4,8.9-6.12m219-27.16a10.88,10.88,0,0,0-.95-1.35c-.07-.07-.68.16-.81.39-1.7,2.78-3.38,5.58-5,8.42-.23.41,0,1.07,0,1.61a5,5,0,0,0,1.63-.21c2.09-1.08,4.11-2.26,6.18-3.37a1.85,1.85,0,0,0,.71-3.05c-.54-.75-1.06-1.51-1.76-2.44m80.17,13.24c.35-1.58.71-3.15,1-4.72.66-3.25,1.12-6.57,3.31-9.29.11-.13-.13-.73-.36-.9-1.26-.95-3-.1-3.63,1.7-1.46,4.45-1.39,9.07-1.36,13.67a3.55,3.55,0,0,0,.37,1.08,7,7,0,0,0,.64-1.54M246.46,68.92c-.55.1-1.41,0-1.61.32-1,1.66-1.93,3.43-2.84,5.17-.1.19-.12.59,0,.68a1.06,1.06,0,0,0,.8.2c1.45-.37,2.89-.77,4.32-1.22.65-.21,1.68-.43,1.8-.85a3.16,3.16,0,0,0-.62-2.06,16,16,0,0,0-1.85-2.24M266.12,82c.77,1.11,1.52,2.24,2.34,3.32.16.21.79.37.89.26a1.26,1.26,0,0,0,.35-1c-.75-2.26-1.49-4.54-2.44-6.72-.21-.48-1.32-.85-2-.8-1,.08-1.39.85-.92,1.82s1.05,2,1.75,3.13m23.62,4.64c-.11.52-.23,1-.34,1.56-.07.33-.13.66-.2,1,.3-.25.71-.44.87-.76,1.41-2.89,2.8-5.79,4.13-8.72a6,6,0,0,0,.21-1.83c-.64.45-1.3.87-1.9,1.37-.21.18-.24.57-.36.87-.8,2-1.61,4.11-2.41,6.52m-8.45-5.33c-.62.16-1.23.37-1.86.47-1.68.25-1.6,1.38-1.28,2.57a19.6,19.6,0,0,0,.91,2.53,6.35,6.35,0,0,0,.7,1,7,7,0,0,0,.66-1A10.63,10.63,0,0,0,281,85a12.22,12.22,0,0,0,.28-3.71M119.39,29.56c.4.06,1,.31,1.16.16A39.31,39.31,0,0,0,123,26.29c.12-.17,0-.54-.09-.81-.32.06-.78,0-.93.19a28.83,28.83,0,0,0-2.57,3.89M309.74,45l.43-1.29c-.39.23-.79.44-1.19.68-.09,0-.21.14-.23.23,0,.35,0,.7-.06,1.05A1.84,1.84,0,0,0,309.74,45Z"/>
        <path d="M600,21.57a7.34,7.34,0,0,1-.66,2.17c-.72,1.26-1.6,2.42-2.35,3.67-1.24,2.06-3.24,2.05-6.13,1.18a5.69,5.69,0,0,1-4.18-5c-.27-2.13,1.34-3.44,2.75-4.65a12.54,12.54,0,0,1,3.18-1.83C595.77,15.77,598.82,17.63,600,21.57Z"/>
    </g>
</svg>
